<?xml version="1.0" standalone="no"?>
<!DOCTYPE svg PUBLIC "-//W3C//DTD SVG 1.1//EN" "http://www.w3.org/Graphics/SVG/1.1/DTD/svg11.dtd">
<svg width="82mm" height="129mm" viewBox="0 -129 82 129" xmlns="http://www.w3.org/2000/svg" version="1.1">
<title>OpenSCAD Model</title>
<path d="
M 0.0999994,-0 L 81.18,-0 L 81.18,-128.5 L 0.0999994,-128.5 z
M 5.02,-3 L 5.09831,-3.49443 L 5.32557,-3.94046 L 5.67954,-4.29443 L 6.12557,-4.52169 L 6.62,-4.6
 L 8.62,-4.6 L 9.11443,-4.52169 L 9.56046,-4.29443 L 9.91443,-3.94046 L 10.1417,-3.49443 L 10.22,-3
 L 10.1417,-2.50557 L 9.91443,-2.05954 L 9.56046,-1.70557 L 9.11443,-1.47831 L 8.62,-1.4 L 6.62,-1.4
 L 6.12557,-1.47831 L 5.67954,-1.70557 L 5.32557,-2.05954 L 5.09831,-2.50557 z
M 5.02,-125.5 L 5.09831,-125.994 L 5.32557,-126.44 L 5.67954,-126.794 L 6.12557,-127.022 L 6.62,-127.1
 L 8.62,-127.1 L 9.11443,-127.022 L 9.56046,-126.794 L 9.91443,-126.44 L 10.1417,-125.994 L 10.22,-125.5
 L 10.1417,-125.006 L 9.91443,-124.56 L 9.56046,-124.206 L 9.11443,-123.978 L 8.62,-123.9 L 6.62,-123.9
 L 6.12557,-123.978 L 5.67954,-124.206 L 5.32557,-124.56 L 5.09831,-125.006 z
M 5.028,-15 L 5.17972,-15.958 L 5.62005,-16.8221 L 6.30587,-17.508 L 7.17005,-17.9483 L 8.128,-18.1
 L 9.08595,-17.9483 L 9.95013,-17.508 L 10.636,-16.8221 L 11.0763,-15.958 L 11.228,-15 L 11.0763,-14.042
 L 10.636,-13.1779 L 9.95013,-12.492 L 9.08595,-12.0517 L 8.128,-11.9 L 7.17005,-12.0517 L 6.30587,-12.492
 L 5.62005,-13.1779 L 5.17972,-14.042 z
M 5.028,-26 L 5.17972,-26.958 L 5.62005,-27.8221 L 6.30587,-28.508 L 7.17005,-28.9483 L 8.128,-29.1
 L 9.08595,-28.9483 L 9.95013,-28.508 L 10.636,-27.8221 L 11.0763,-26.958 L 11.228,-26 L 11.0763,-25.042
 L 10.636,-24.1779 L 9.95013,-23.492 L 9.08595,-23.0517 L 8.128,-22.9 L 7.17005,-23.0517 L 6.30587,-23.492
 L 5.62005,-24.1779 L 5.17972,-25.042 z
M 6.61,-48 L 6.78375,-49.097 L 7.28799,-50.0866 L 8.07336,-50.872 L 9.06299,-51.3763 L 10.16,-51.55
 L 11.257,-51.3763 L 12.2466,-50.872 L 13.032,-50.0866 L 13.5363,-49.097 L 13.71,-48 L 13.5363,-46.903
 L 13.032,-45.9134 L 12.2466,-45.128 L 11.257,-44.6237 L 10.16,-44.45 L 9.06299,-44.6237 L 8.07336,-45.128
 L 7.28799,-45.9134 L 6.78375,-46.903 z
M 7.01,-105 L 7.16417,-105.973 L 7.6116,-106.852 L 8.30848,-107.548 L 9.1866,-107.996 L 10.16,-108.15
 L 11.1334,-107.996 L 12.0115,-107.548 L 12.7084,-106.852 L 13.1558,-105.973 L 13.31,-105 L 13.1558,-104.027
 L 12.7084,-103.148 L 12.0115,-102.452 L 11.1334,-102.004 L 10.16,-101.85 L 9.1866,-102.004 L 8.30848,-102.452
 L 7.6116,-103.148 L 7.16417,-104.027 z
M 7.96,-63.5 L 7.96,-82.5 L 8.03342,-82.9635 L 8.24648,-83.3817 L 8.57832,-83.7135 L 8.99648,-83.9266
 L 9.46,-84 L 10.86,-84 L 11.3235,-83.9266 L 11.7417,-83.7135 L 12.0735,-83.3817 L 12.2866,-82.9635
 L 12.36,-82.5 L 12.36,-63.5 L 12.2866,-63.0365 L 12.0735,-62.6183 L 11.7417,-62.2865 L 11.3235,-62.0734
 L 10.86,-62 L 9.46,-62 L 8.99648,-62.0734 L 8.57832,-62.2865 L 8.24648,-62.6183 L 8.03342,-63.0365
 z
M 21.284,-15 L 21.4357,-15.958 L 21.876,-16.8221 L 22.5619,-17.508 L 23.426,-17.9483 L 24.384,-18.1
 L 25.342,-17.9483 L 26.2061,-17.508 L 26.892,-16.8221 L 27.3323,-15.958 L 27.484,-15 L 27.3323,-14.042
 L 26.892,-13.1779 L 26.2061,-12.492 L 25.342,-12.0517 L 24.384,-11.9 L 23.426,-12.0517 L 22.5619,-12.492
 L 21.876,-13.1779 L 21.4357,-14.042 z
M 21.284,-26 L 21.4357,-26.958 L 21.876,-27.8221 L 22.5619,-28.508 L 23.426,-28.9483 L 24.384,-29.1
 L 25.342,-28.9483 L 26.2061,-28.508 L 26.892,-27.8221 L 27.3323,-26.958 L 27.484,-26 L 27.3323,-25.042
 L 26.892,-24.1779 L 26.2061,-23.492 L 25.342,-23.0517 L 24.384,-22.9 L 23.426,-23.0517 L 22.5619,-23.492
 L 21.876,-24.1779 L 21.4357,-25.042 z
M 26.93,-48 L 27.1037,-49.097 L 27.608,-50.0866 L 28.3934,-50.872 L 29.383,-51.3763 L 30.48,-51.55
 L 31.577,-51.3763 L 32.5666,-50.872 L 33.352,-50.0866 L 33.8563,-49.097 L 34.03,-48 L 33.8563,-46.903
 L 33.352,-45.9134 L 32.5666,-45.128 L 31.577,-44.6237 L 30.48,-44.45 L 29.383,-44.6237 L 28.3934,-45.128
 L 27.608,-45.9134 L 27.1037,-46.903 z
M 26.93,-105 L 27.1037,-106.097 L 27.608,-107.087 L 28.3934,-107.872 L 29.383,-108.376 L 30.48,-108.55
 L 31.577,-108.376 L 32.5666,-107.872 L 33.352,-107.087 L 33.8563,-106.097 L 34.03,-105 L 33.8563,-103.903
 L 33.352,-102.913 L 32.5666,-102.128 L 31.577,-101.624 L 30.48,-101.45 L 29.383,-101.624 L 28.3934,-102.128
 L 27.608,-102.913 L 27.1037,-103.903 z
M 28.28,-63.5 L 28.28,-82.5 L 28.3534,-82.9635 L 28.5665,-83.3817 L 28.8983,-83.7135 L 29.3165,-83.9266
 L 29.78,-84 L 31.18,-84 L 31.6435,-83.9266 L 32.0617,-83.7135 L 32.3935,-83.3817 L 32.6066,-82.9635
 L 32.68,-82.5 L 32.68,-63.5 L 32.6066,-63.0365 L 32.3935,-62.6183 L 32.0617,-62.2865 L 31.6435,-62.0734
 L 31.18,-62 L 29.78,-62 L 29.3165,-62.0734 L 28.8983,-62.2865 L 28.5665,-62.6183 L 28.3534,-63.0365
 z
M 37.54,-15 L 37.6917,-15.958 L 38.132,-16.8221 L 38.8179,-17.508 L 39.682,-17.9483 L 40.64,-18.1
 L 41.598,-17.9483 L 42.4621,-17.508 L 43.148,-16.8221 L 43.5883,-15.958 L 43.74,-15 L 43.5883,-14.042
 L 43.148,-13.1779 L 42.4621,-12.492 L 41.598,-12.0517 L 40.64,-11.9 L 39.682,-12.0517 L 38.8179,-12.492
 L 38.132,-13.1779 L 37.6917,-14.042 z
M 37.54,-26 L 37.6917,-26.958 L 38.132,-27.8221 L 38.8179,-28.508 L 39.682,-28.9483 L 40.64,-29.1
 L 41.598,-28.9483 L 42.4621,-28.508 L 43.148,-27.8221 L 43.5883,-26.958 L 43.74,-26 L 43.5883,-25.042
 L 43.148,-24.1779 L 42.4621,-23.492 L 41.598,-23.0517 L 40.64,-22.9 L 39.682,-23.0517 L 38.8179,-23.492
 L 38.132,-24.1779 L 37.6917,-25.042 z
M 47.25,-48 L 47.4237,-49.097 L 47.928,-50.0866 L 48.7134,-50.872 L 49.703,-51.3763 L 50.8,-51.55
 L 51.897,-51.3763 L 52.8866,-50.872 L 53.672,-50.0866 L 54.1763,-49.097 L 54.35,-48 L 54.1763,-46.903
 L 53.672,-45.9134 L 52.8866,-45.128 L 51.897,-44.6237 L 50.8,-44.45 L 49.703,-44.6237 L 48.7134,-45.128
 L 47.928,-45.9134 L 47.4237,-46.903 z
M 47.25,-105 L 47.4237,-106.097 L 47.928,-107.087 L 48.7134,-107.872 L 49.703,-108.376 L 50.8,-108.55
 L 51.897,-108.376 L 52.8866,-107.872 L 53.672,-107.087 L 54.1763,-106.097 L 54.35,-105 L 54.1763,-103.903
 L 53.672,-102.913 L 52.8866,-102.128 L 51.897,-101.624 L 50.8,-101.45 L 49.703,-101.624 L 48.7134,-102.128
 L 47.928,-102.913 L 47.4237,-103.903 z
M 48.6,-63.5 L 48.6,-82.5 L 48.6734,-82.9635 L 48.8865,-83.3817 L 49.2183,-83.7135 L 49.6365,-83.9266
 L 50.1,-84 L 51.5,-84 L 51.9635,-83.9266 L 52.3817,-83.7135 L 52.7135,-83.3817 L 52.9266,-82.9635
 L 53,-82.5 L 53,-63.5 L 52.9266,-63.0365 L 52.7135,-62.6183 L 52.3817,-62.2865 L 51.9635,-62.0734
 L 51.5,-62 L 50.1,-62 L 49.6365,-62.0734 L 49.2183,-62.2865 L 48.8865,-62.6183 L 48.6734,-63.0365
 z
M 53.796,-15 L 53.9477,-15.958 L 54.388,-16.8221 L 55.0739,-17.508 L 55.938,-17.9483 L 56.896,-18.1
 L 57.854,-17.9483 L 58.7181,-17.508 L 59.404,-16.8221 L 59.8443,-15.958 L 59.996,-15 L 59.8443,-14.042
 L 59.404,-13.1779 L 58.7181,-12.492 L 57.854,-12.0517 L 56.896,-11.9 L 55.938,-12.0517 L 55.0739,-12.492
 L 54.388,-13.1779 L 53.9477,-14.042 z
M 53.796,-26 L 53.9477,-26.958 L 54.388,-27.8221 L 55.0739,-28.508 L 55.938,-28.9483 L 56.896,-29.1
 L 57.854,-28.9483 L 58.7181,-28.508 L 59.404,-27.8221 L 59.8443,-26.958 L 59.996,-26 L 59.8443,-25.042
 L 59.404,-24.1779 L 58.7181,-23.492 L 57.854,-23.0517 L 56.896,-22.9 L 55.938,-23.0517 L 55.0739,-23.492
 L 54.388,-24.1779 L 53.9477,-25.042 z
M 67.57,-48 L 67.7437,-49.097 L 68.248,-50.0866 L 69.0334,-50.872 L 70.023,-51.3763 L 71.12,-51.55
 L 72.217,-51.3763 L 73.2066,-50.872 L 73.992,-50.0866 L 74.4963,-49.097 L 74.67,-48 L 74.4963,-46.903
 L 73.992,-45.9134 L 73.2066,-45.128 L 72.217,-44.6237 L 71.12,-44.45 L 70.023,-44.6237 L 69.0334,-45.128
 L 68.248,-45.9134 L 67.7437,-46.903 z
M 67.57,-105 L 67.7437,-106.097 L 68.248,-107.087 L 69.0334,-107.872 L 70.023,-108.376 L 71.12,-108.55
 L 72.217,-108.376 L 73.2066,-107.872 L 73.992,-107.087 L 74.4963,-106.097 L 74.67,-105 L 74.4963,-103.903
 L 73.992,-102.913 L 73.2066,-102.128 L 72.217,-101.624 L 71.12,-101.45 L 70.023,-101.624 L 69.0334,-102.128
 L 68.248,-102.913 L 67.7437,-103.903 z
M 68.92,-63.5 L 68.92,-82.5 L 68.9934,-82.9635 L 69.2065,-83.3817 L 69.5383,-83.7135 L 69.9565,-83.9266
 L 70.42,-84 L 71.82,-84 L 72.2835,-83.9266 L 72.7017,-83.7135 L 73.0335,-83.3817 L 73.2466,-82.9635
 L 73.32,-82.5 L 73.32,-63.5 L 73.2466,-63.0365 L 73.0335,-62.6183 L 72.7017,-62.2865 L 72.2835,-62.0734
 L 71.82,-62 L 70.42,-62 L 69.9565,-62.0734 L 69.5383,-62.2865 L 69.2065,-62.6183 L 68.9934,-63.0365
 z
M 70.052,-15 L 70.2037,-15.958 L 70.644,-16.8221 L 71.3299,-17.508 L 72.194,-17.9483 L 73.152,-18.1
 L 74.11,-17.9483 L 74.9741,-17.508 L 75.66,-16.8221 L 76.1003,-15.958 L 76.252,-15 L 76.1003,-14.042
 L 75.66,-13.1779 L 74.9741,-12.492 L 74.11,-12.0517 L 73.152,-11.9 L 72.194,-12.0517 L 71.3299,-12.492
 L 70.644,-13.1779 L 70.2037,-14.042 z
M 70.052,-26 L 70.2037,-26.958 L 70.644,-27.8221 L 71.3299,-28.508 L 72.194,-28.9483 L 73.152,-29.1
 L 74.11,-28.9483 L 74.9741,-28.508 L 75.66,-27.8221 L 76.1003,-26.958 L 76.252,-26 L 76.1003,-25.042
 L 75.66,-24.1779 L 74.9741,-23.492 L 74.11,-23.0517 L 73.152,-22.9 L 72.194,-23.0517 L 71.3299,-23.492
 L 70.644,-24.1779 L 70.2037,-25.042 z
M 71.06,-3 L 71.1383,-3.49443 L 71.3656,-3.94046 L 71.7195,-4.29443 L 72.1656,-4.52169 L 72.66,-4.6
 L 74.66,-4.6 L 75.1544,-4.52169 L 75.6005,-4.29443 L 75.9544,-3.94046 L 76.1817,-3.49443 L 76.26,-3
 L 76.1817,-2.50557 L 75.9544,-2.05954 L 75.6005,-1.70557 L 75.1544,-1.47831 L 74.66,-1.4 L 72.66,-1.4
 L 72.1656,-1.47831 L 71.7195,-1.70557 L 71.3656,-2.05954 L 71.1383,-2.50557 z
M 71.06,-125.5 L 71.1383,-125.994 L 71.3656,-126.44 L 71.7195,-126.794 L 72.1656,-127.022 L 72.66,-127.1
 L 74.66,-127.1 L 75.1544,-127.022 L 75.6005,-126.794 L 75.9544,-126.44 L 76.1817,-125.994 L 76.26,-125.5
 L 76.1817,-125.006 L 75.9544,-124.56 L 75.6005,-124.206 L 75.1544,-123.978 L 74.66,-123.9 L 72.66,-123.9
 L 72.1656,-123.978 L 71.7195,-124.206 L 71.3656,-124.56 L 71.1383,-125.006 z
" stroke="black" fill="lightgray" stroke-width="0.5"/>
</svg>
